# xmcd
#
# Track frame offsets:
#	150
#	15848
#	29933
#	47148
#	64495
#	80818
#	98989
#	112418
#	127074
#	145407
#	161494
#	177763
#	192173
#	210462
#	224265
#	238574
#	256649
#	257626
#	258349
#	259031
#	259726
#	260541
#	261264
#	261999
#	262751
#	263646
#	264507
#	265127
#	265719
#	266327
#	267038
#	267691
#	268309
#	268949
#	269714
#	270678
#	271362
#	271984
#	272686
#	273517
#	274297
#	275065
#	275768
#	276643
#	277695
#	278425
#	279157
#	279903
#	280684
#	281484
#	282245
#	282990
#	283911
#	284816
#	285566
#	286306
#	287021
#	287861
#	288651
#	289441
#	290136
#
# Disc length: 3877 seconds
#
# Revision: 1
# Processed by: cddbd v1.5.2PL0 Copyright (c) Steve Scherf et al.
# Submitted via: audiograbber 1.83.01
#
DISCID=2a0f233d
DTITLE=Various Artist - CDX Volume 637 (August 1, 2016)
DYEAR=2016
DGENRE=Country
TTITLE0=Toby Keith - A Few More Cowboys
TTITLE1=Frankie Ballard - Cigarette 
TTITLE2=Raelynn - Love Triangle 
TTITLE3=Luke Bryan - Move
TTITLE4=Aaron Goodvin - Woman In Love
TTITLE5=Shawn B. Wells - As Long As I've Got  You
TTITLE6=Denny Strickland - Get A Grip
TTITLE7=Adairs Run - Hungover You
TTITLE8=Sammy Sadler - In America
TTITLE9=Cody Hicks - Left Turn 
TTITLE10=Alex Smith - Load It Up 
TTITLE11=Darryl Ryan - Not Enough Town
TTITLE12=Donovan Lee - She Stays
TTITLE13=James Dupre - Stoned To Death
TTITLE14=Lonnie Spiker - Things Only A Fool Would Know
TTITLE15=Aaron Tracy - Timeless
TTITLE16=David Shelby - Artist Liner - My New Single
TTITLE17=David Shelby - Artist Liner - Best Country
TTITLE18=David Shelby - Artist Liner - Kickin' Country
TTITLE19=David Shelby - Artist Liner - Hometown Country
TTITLE20=David Shelby - Artist Liner - Super Country
TTITLE21=David Shelby - Artist Liner - Hot Country
TTITLE22=David Shelby - Artist Liner - Best In Today's Country
TTITLE23=David Shelby - Artist Liner - More Of The Country You Love
TTITLE24=David Shelby - Artist Liner - Howlin Country
TTITLE25=Lucas Hoge - Artist Liner - My New Single
TTITLE26=Lucas Hoge - Artist Liner - Best Country
TTITLE27=Lucas Hoge - Artist Liner - Kickin' Country
TTITLE28=Lucas Hoge - Artist Liner - Hometown Country
TTITLE29=Lucas Hoge - Artist Liner - Super Country
TTITLE30=Lucas Hoge - Artist Liner - Today's Hot Country
TTITLE31=Lucas Hoge - Artist Liner - Best in Country
TTITLE32=Lucas Hoge - Artist Liner - More of the Country You Love
TTITLE33=Lucas Hoge - Artist Liner - Howlin' Country
TTITLE34=Stephanie Quayle - Artist Liner - My New Single
TTITLE35=Stephanie Quayle - Artist Liner - Today's Best
TTITLE36=Stephanie Quayle - Artist Liner - Kickin' Country
TTITLE37=Stephanie Quayle - Artist Liner - Hometown Country
TTITLE38=Stephanie Quayle - Artist Liner - Super Country
TTITLE39=Stephanie Quayle - Artist Liner - Today's Hot Country
TTITLE40=Stephanie Quayle - Artist Liner - Best In Country
TTITLE41=Stephanie Quayle - Artist Liner - More of the Country You Love
TTITLE42=Stephanie Quayle - Artist Liner - Howlin' Country
TTITLE43=Terra Bella - Artist Liner - Our New Single
TTITLE44=Terra Bella - Artist Liner - Today's Best
TTITLE45=Terra Bella - Artist Liner - Kickin' Country
TTITLE46=Terra Bella - Artist Liner - Hometown Country
TTITLE47=Terra Bella - Artist Liner - Super Country
TTITLE48=Terra Bella - Artist Liner - Today's Hot Country
TTITLE49=Terra Bella - Artist Liner - Best In Today's Country
TTITLE50=Terra Bella - Artist Liner - More of the Country You Love
TTITLE51=Terra Bella - Artist Liner - Howlin' Country
TTITLE52=Tony McKee - Artist Liner - My New Single
TTITLE53=Tony McKee - Artist Liner - Today's Best Country
TTITLE54=Tony McKee - Artist Liner - Kickin' Country
TTITLE55=Tony McKee - Artist Liner - Hometown Country
TTITLE56=Tony McKee - Artist Liner - Super Country
TTITLE57=Tony McKee - Artist Liner - Today's Hot Country
TTITLE58=Tony McKee - Artist Liner - Best In Today's Country
TTITLE59=Tony McKee - Artist Liner - More Of The Country You Love
TTITLE60=Tony McKee - Artist Liner - Howlin' Country
EXTD=
EXTT0=
EXTT1=
EXTT2=
EXTT3=
EXTT4=
EXTT5=
EXTT6=
EXTT7=
EXTT8=
EXTT9=
EXTT10=
EXTT11=
EXTT12=
EXTT13=
EXTT14=
EXTT15=
EXTT16=
EXTT17=
EXTT18=
EXTT19=
EXTT20=
EXTT21=
EXTT22=
EXTT23=
EXTT24=
EXTT25=
EXTT26=
EXTT27=
EXTT28=
EXTT29=
EXTT30=
EXTT31=
EXTT32=
EXTT33=
EXTT34=
EXTT35=
EXTT36=
EXTT37=
EXTT38=
EXTT39=
EXTT40=
EXTT41=
EXTT42=
EXTT43=
EXTT44=
EXTT45=
EXTT46=
EXTT47=
EXTT48=
EXTT49=
EXTT50=
EXTT51=
EXTT52=
EXTT53=
EXTT54=
EXTT55=
EXTT56=
EXTT57=
EXTT58=
EXTT59=
EXTT60=
PLAYORDER=
